<?xml version="1.0" encoding="UTF-8" standalone="no"?><!DOCTYPE svg PUBLIC "-//W3C//DTD SVG 1.1//EN" "http://www.w3.org/Graphics/SVG/1.1/DTD/svg11.dtd"><svg width="100%" height="100%" viewBox="0 0 2309 2309" version="1.1" xmlns="http://www.w3.org/2000/svg" xmlns:xlink="http://www.w3.org/1999/xlink" xml:space="preserve" xmlns:serif="http://www.serif.com/" style="fill-rule:evenodd;clip-rule:evenodd;stroke-linejoin:round;stroke-miterlimit:2;"><g id="Background"><path d="M1429.482,816.486c-23.186,-19.462 -22.036,8.717 -65.24,21.997c-51.702,15.893 -119.695,-14.691 -107.411,-36.067c30.131,-52.431 104.33,-49.074 66.61,-59.729c-17.014,-4.806 -95.609,40.72 -154.927,-44.609c-2.681,-3.856 -27.325,-39.307 37.792,-44.918c70.825,-6.103 105.705,45.686 111.228,53.887c14.321,21.263 19.069,15.658 39.695,30.502c14.82,10.666 3.951,-21.672 3.822,-23.019c-5.114,-53.374 17.4,-108.574 48.095,-85.841c37.109,27.484 60.578,94.837 26.725,148.737c-9.606,15.294 16.596,25.592 33.627,48.92c18.236,24.979 2.487,-37.252 45.394,-73.885c19.931,-17.017 27.476,-24.922 42.249,-0.9c32.559,52.943 8.026,110.521 -7.093,128.198c-16.739,19.571 -24.29,18.438 -18.458,30.493c6.786,14.027 15.746,39.032 21.96,21.901c21.92,-60.434 74.225,-76.82 80.951,-62.867c18.351,38.071 25.098,106.26 -45.937,152.017c-18.421,11.866 3.126,23.219 5.43,109.94c0.998,37.559 -2.268,73.851 -9.288,108.53c-50.252,248.261 -292.874,413.84 -540.746,369.684c-35.333,-6.294 -32.932,5.472 -56.227,32.459c-62.098,71.938 -86.009,42.515 -123.454,32.826c-2.189,-0.566 -60.952,17.11 -95.165,-10.63c-3.202,-2.596 -10.411,-13.194 -13.76,-14.345c-1.417,-0.487 -41.623,-6.183 -48.484,-27.07c-7.179,-21.854 32.292,-16.102 17.765,-30.225c-48.22,-46.878 79.365,-38.81 55.998,-52.239c-0.892,-0.513 -1.109,0.728 -11.984,-4.664c-28.664,-14.213 18.762,-26.754 21.457,-27.466c7.528,-1.991 31.338,-0.002 12.04,-18.578c-162.477,-156.395 -149.802,-381.288 -141.974,-387.82c14.32,-11.948 -2.099,38.306 18.336,141.73c3.352,16.964 31.505,125.121 110.932,204.619c40.841,40.878 42.32,48.406 70.7,40.637c12.588,-3.446 110.933,-30.367 151.298,-61.011c13.063,-9.918 -11.561,-6.622 -26.334,-12.397c-27.91,-10.911 -28.453,-6.553 -58.176,-7.547c-40.701,-1.361 -67.545,-33.248 -71.733,-38.223c-7.05,-8.375 -80.386,-10.511 -93.563,-67.725c-8.244,-35.796 -31.15,-20.753 -45.316,-54.645c-18.672,-44.671 7.337,-52.042 -5.279,-74.529c-19.85,-35.383 -1.057,-61.609 -5.48,-70.246c-16.495,-32.207 -22.915,-30.993 -21.457,-67.022c1.038,-25.654 14.706,-26.879 2.38,-46.502c-35.034,-55.775 8.857,-83.525 2.942,-99.208c-27.802,-73.712 -11.49,-75.629 -2.504,-116.372c2.844,-12.897 -51.42,-157.677 22.198,-86.503c136.558,132.024 136.638,131.755 148.378,143.357c7.507,7.419 84.983,83.979 95.541,90.979c6.538,4.335 13.468,-21.745 21.444,-30.073c2.027,-2.116 4.661,-3.57 6.792,-5.582c16.229,-15.322 -12.234,-39.84 32.461,-76.269c24.71,-20.14 -1.906,-39.373 31.528,-89.417c21,-31.433 7.172,-35.89 18.481,-72.123c12.425,-39.806 25.651,-19.113 26.746,-16.834c38.127,79.368 111.317,249.163 120.711,270.954c45.188,104.832 43.429,222.866 43.135,242.574c-0.393,26.387 11.397,-1.429 55.948,-50.688c7.699,-8.512 53.973,-86.497 124.306,-60.481c21.696,8.025 27.799,32.357 39.074,38.053c9.899,5.001 70.706,26.714 40.643,42.746c-19.871,10.597 -86.423,-22.911 -85.59,50.597c2.039,179.944 -110.252,313.909 -285.248,344.109c-64.042,11.052 -104.203,73.236 -102.625,75.956c3.904,6.731 293.844,65.536 467.691,-208.715c88.727,-139.97 65.114,-339.057 43.637,-338.824c-17.027,0.184 -16.424,4.362 -33.465,3.946c-74.658,-1.823 -121.355,-76.99 -95.94,-89.229c20.357,-9.803 61.556,-16.175 87.799,-4.268c1.065,0.483 22.079,10.018 12.285,-7.911c-8.943,-16.371 -7.708,-24.296 -25.477,-18.249c-11.33,3.856 -97.538,33.194 -143.878,-40.979c-13.322,-21.324 37.028,-49.154 90.688,-39.304c16.243,2.982 -12.991,-23.072 -14.703,-24.598Z" style="fill:#262626;"/><path d="M1051.797,1081.433c-46.38,-65.412 -278.799,-205.162 -324.266,-279.6c-4.096,-6.705 -28.015,-45.867 -36.123,-91.33c-4.474,-25.087 16.95,6.142 106.006,87.966c94.316,86.657 226.692,217.919 246.109,237.172c42.324,41.968 46.062,41.516 59.117,99.666c6.295,28.041 15.194,94.515 95.575,84.597c80.633,-9.95 160.059,-224.683 239.465,-161.593c16.215,12.883 8.189,22.855 34.86,31.701c21.274,7.055 -14.888,7.667 -16.332,7.691c-58.666,0.993 -46.975,107.077 -48.766,121.219c-21.12,166.814 -162.139,249.63 -230.127,263.291c-108.369,21.775 -105.785,33.971 -201.325,143.923c-34.529,39.738 -46.882,43.09 -73.767,41.767c-21.033,-1.035 -5.674,-11.669 -4.807,-12.269c5.639,-3.904 4.146,-5.515 66.062,-54.637c22.232,-17.638 48.421,-42.292 26.115,-32.17c-1.94,0.88 -142.441,117.867 -193.056,88.771c-11.949,-6.869 20.55,-12.853 51.096,-26.957c5.249,-2.424 61.647,-28.465 66.043,-29.354c4.173,-0.844 7.725,0.42 5.072,-3.235c-11.488,-15.831 -99.061,48.47 -179.088,28.87c-17.452,-4.274 6.289,-10.007 7.265,-10.243c31.732,-7.663 31.009,-8.906 63.128,-15.704c1.631,-0.345 53.44,-11.31 17.177,-11.795c-54.977,-0.737 -55.79,4.669 -80.273,-6.506c-2.003,-0.914 -4.891,-0.699 -6.099,-2.54c-0.724,-1.104 3.055,-2.098 2.331,-3.202l0.881,-3.467c73.119,-16.156 71.998,-19.439 120.207,-26.33c10.462,-3.887 10.718,-3.416 11.287,-4.194c0.847,-1.159 -3.691,-2.076 -2.844,-3.235c-4.546,-2.275 -4.141,-2.236 -4.546,-2.275c-28.959,-2.846 -28.916,-0.282 -57.353,-6.8l-3.116,-3.979c0.879,-0.751 -1.891,-2.568 -1.011,-3.32c2.956,-2.525 207.385,-36.644 289.465,-143.661c85.828,-111.904 108.727,-113.062 87.204,-142.53c-5.09,-6.968 -36.358,-8.215 -48.056,-13.964c-38.679,-19.01 -37.46,-28.183 -48.567,-46.634c-16.444,-48.635 -7.297,-52.161 -34.946,-95.108Z" style="fill:#fcfcf9;"/><path d="M1081.847,661.727c2.49,1.283 2.863,0.062 4.175,2.152c1.354,2.157 1.655,1.442 1.717,1.62c12.62,36.161 15.116,34.838 29.124,70.677c25.084,64.178 65.728,137.65 97.457,232.65c22.56,67.546 24.02,197.375 19.722,207.594c-3.571,8.49 -28.61,21.168 -31.784,21.919c-70.786,16.758 -72.837,-35.934 -86.91,-96.451c-16.021,-68.894 -142.403,-140.865 -140.719,-162.22c1.374,-17.422 67.869,58.966 75.436,60.731c29.414,6.861 -85.957,-80.787 -59.915,-97.284c6.498,-4.116 7.386,0.388 66.352,69.589c66.212,77.704 75.475,94.378 80.572,103.554c0.462,0.832 9.347,1.943 10.372,0.637c7.574,-9.658 -134.175,-164.048 -142.456,-208.015c-1.772,-9.407 2.862,-27.458 10.582,-9.103c5.107,12.143 2.011,14.617 61.367,80.061l4.445,3.148c13.523,6.794 5.533,-4.551 4.312,-7.652c-2.303,-3.274 -9.582,-13.625 -32.358,-38.166c-39.323,-42.371 -28.914,-93.74 -18.248,-65.683c14.423,37.94 68.963,90.957 121.813,169.867c3.391,8.129 3.206,8.17 3.662,8.779c6.754,9.012 5.355,-6.368 3.272,-12.175c-18.621,-41.493 -118.758,-155.285 -120.877,-204.284c-1.436,-33.204 9.299,4.665 26.351,32.977c0.361,0.599 21.057,18.284 7.888,-3.779c-3.354,-5.619 -24.456,-40.971 -23.121,-78.456c2.499,-70.182 3.313,22.509 39.25,82.935c47.489,79.849 49.157,82.268 53.888,89.127c6.618,19.603 0.891,20.893 9.539,39.578c0.778,-3.216 6.82,-28.187 -1.225,-41.337c-14.411,-33.026 -48.593,-77.603 -79.242,-179.234l5.139,-3.167c0.713,1.121 2.652,-0.112 12.275,20.281c1.955,0.866 2.259,3.97 4.214,4.836c3.768,1.669 1.074,-1.947 2.995,-5.428c-22.163,-55.641 -21.181,-65.943 -22.567,-87.038l3.502,-3.24Z" style="fill:#fbfcf6;"/><path d="M797.861,1079.849c-1.094,-0.299 -12.245,-3.343 -14.174,0.348c-5.151,9.855 6.085,4.124 131.395,45.355c15.475,5.092 13.813,16.646 3.753,15.108c-11.986,-1.833 -146.914,-22.472 -149.806,-23.01c-62.128,-11.562 -76.457,-87.891 -58.044,-102.003c5.395,-4.135 6.727,-2.799 78.616,32.235c20.836,10.154 113.79,49.108 115.044,50.874c13.258,18.679 -71.333,-13.632 -102.558,-17.693l-4.226,-1.214Z" style="fill:#fbfbf4;"/><path d="M1038.121,1270.155l2.183,2.564c-5.396,6.463 -5.904,6.441 -96.459,42.093c-44.575,17.549 -57.362,29.265 -95.939,29.325c-48.568,0.075 -88.229,-52.551 -53.906,-57.113c200.12,-26.597 198.942,-33.878 216.407,-35.552c8.985,-0.861 11.551,7.714 -0.801,11.583c-9.254,2.899 -89.796,28.129 -116.501,33.462c-27.976,5.587 -23.444,12.355 -23.745,12.599c27.235,1.831 151.451,-40.672 168.762,-38.96Z" style="fill:#fcfbf1;"/><path d="M769.942,988.962c5.316,4.627 54.426,33.091 93.635,56.614c8.898,5.338 40.497,19.674 33.4,26.244c-6.477,5.995 -27.628,-11.687 -73.463,-29.46c-0.618,-0.24 -84.398,-38.168 -91.735,-41.49c-61.454,-27.821 -39.026,-100.052 -17.051,-82.31c36.377,29.369 182.94,109.404 178.582,121.001c-2.559,6.81 -7.187,6.113 -83.12,-36.879c-28.548,-16.163 -32.885,-28.934 -40.247,-13.72Z" style="fill:#fafbf3;"/><path d="M776.827,1164.036c-35.95,0.455 4.102,7.831 4.84,7.874c14.637,1.004 176.892,12.134 182.482,18.265c11.375,12.477 -37.602,7.344 -62.065,7.559c-117.78,1.039 -171.236,6.735 -180.457,-53.804c-4.366,-28.665 8.384,-22.991 9.988,-21.923c49.171,32.764 232.659,28.516 205.275,48.501c-5.044,3.681 -65.74,-5.799 -160.062,-6.473Z" style="fill:#f8f6ec;"/><path d="M997.043,1223.157c-7.338,-0.002 -7.435,0.4 -7.925,-0.002c-1.211,-0.994 2.196,-4.025 0.755,-4.641c-1.876,-0.802 -3.604,1.964 -5.544,2.595c-11.245,3.658 -171.157,8.742 -180.516,15.721c-11.646,8.684 6.607,8.635 181.529,-4.594c5.052,2.319 5.255,2.069 5.457,2.505c1.363,2.951 -2.025,2.899 -0.68,5.811c-159.57,20.697 -158.958,22.422 -200.536,28.183c-59.823,8.289 -77.107,-80.746 -49.192,-64.408c32.548,19.049 74.569,11.907 120.023,11.954c118.476,0.124 122.872,-9.334 136.631,6.877Z" style="fill:#f9f7e9;"/><path d="M743.345,915.228c-69.142,-44.393 -48.464,-114.186 -44.265,-115.548c7.424,-2.408 5.674,2.235 16.012,18.699c26.211,41.746 86.574,80.784 146.429,128.188c16.048,12.71 23.675,11.973 17.153,19.793c-6.259,7.504 -102.458,-66.094 -118.357,-71.684c-38.083,-13.388 29.949,30.828 33.076,32.861c7.334,4.767 86.785,56.405 86.971,66.263c0.286,15.19 -15.543,-2.813 -137.019,-78.573Z" style="fill:#fafbef;"/><path d="M1094.035,1284.435c-0.424,2.762 -0.847,5.525 -1.271,8.287c-84.149,60.894 -107.726,110.322 -178.264,92.986c-33.045,-8.121 -42.2,-22.294 -33.361,-25.472c139.386,-50.122 195.631,-90.383 167.025,-62.216c-6.122,6.029 -34.907,20.891 -51.209,37.029c0.294,1.544 0.588,3.087 0.881,4.631c1.027,-0.022 -0.912,3.101 0.115,3.079c9.549,-0.205 70.869,-52.102 96.084,-58.325Z" style="fill:#fafaf1;"/><path d="M952.931,1041.408c-0.23,2.139 -0.459,4.277 -0.689,6.416c69.974,44.343 85.393,37.1 78.94,53.761c-95.242,-36.944 -125.352,-51.467 -131.361,-99.694c-6.059,-48.631 21.179,2.201 112.765,60.282c-3.143,3.116 -2.684,3.037 -6.713,5.24c-34.97,-15.921 -34.044,-23.05 -52.942,-26.005Z" style="fill:#fbfaec;"/><path d="M1141.275,1286.553c1.665,0.791 0.918,-2.058 2.414,-1.348c0.425,0.202 3.582,1.701 3.935,4.363c0.241,1.813 -2.965,2.95 -2.724,4.764c-8.107,8.411 -18.361,19.681 -19.936,21.412c-27.263,29.966 -25.594,30.947 -52.379,61.071c-33.869,38.091 -86.552,26.69 -72.482,15.408c55.615,-44.598 54.968,-44.833 106.725,-93.72c21.831,-21.458 21.574,-21.816 24.031,-22.811c25.162,-10.184 -8.753,16.279 -63.577,76.235c-0.557,0.679 -16.154,19.676 -2.194,10.758c0.805,-0.514 0.614,-0.637 8.283,-8.6c5.668,-5.155 43.947,-39.973 67.904,-67.532Z" style="fill:#f9f6e7;"/><path d="M1022.928,1114.569c-1.219,0.942 -0.499,6.613 -12.047,5.303c-2.97,-0.337 -5.9,-0.978 -8.87,-1.315c-12.371,-3.021 -12.625,-4.176 -14.846,-2.462c-4.618,3.565 0.671,3.306 9.998,7.577c4.24,1.511 76.011,15.734 46.527,19.898c-6.274,0.886 -72.687,-11.825 -78.976,-13.028c-37.502,-7.177 -68.386,-76.156 -32.959,-50.232c15.838,11.589 83.712,32.014 91.174,34.26Z" style="fill:#faf9e9;"/><path d="M1222.939,690.743c-5.061,0.292 -7.251,-1.828 -7.073,2.943c0.109,2.912 1.177,2.017 2.643,4.528c20.723,9.281 90.299,29.635 58.319,32.163c-53.918,4.262 -117.998,-52.97 -70.697,-54.711c40.989,-1.509 54.005,3.622 80.72,25.799c6.393,5.307 0.473,9.902 -5.465,7.725c-28.927,-10.604 -28.41,-11.069 -58.447,-18.447Z" style="fill:#fbfaec;"/><path d="M1480.813,877.4c-1.339,2.283 -2.679,4.566 -4.018,6.849c-59.53,-8.413 -61.067,-8.398 -63.511,-3.932c-5.447,9.949 31.776,14.239 54.909,19.177c29.989,6.402 -21.664,21.315 -65.699,-2.315c-62.375,-33.471 27.733,-52.117 78.32,-19.778Z" style="fill:#fafaea;"/><path d="M1381.419,801.818c-0.227,1.497 -1.207,2.812 -1.433,4.309c-2.611,17.241 -79.099,19.9 -93.445,3.121c-19.554,-22.87 98.639,-52.821 95.305,-27.726c-0.435,3.275 -66.874,18.783 -66.806,20.946c0.431,13.572 46.674,-0.491 66.38,-0.65Z" style="fill:#faf9ea;"/><path d="M1534.944,985.679c-1.591,2.982 -0.453,3.271 -2.812,5.269c-1.068,0.905 0.215,1.345 -0.857,2.253c-4.416,-1.529 -54.823,-18.98 -56.555,-14.617c-1.751,4.411 -1.744,8.11 51.361,29.693c51.711,21.017 -62.071,14.534 -82.465,-31.123c-8.917,-19.962 58.16,-21.02 91.329,8.525Z" style="fill:#fafaef;"/><path d="M1394.762,682.118c-3.359,20.626 3.64,41.787 6.574,61.472c-2.376,1.201 -4.753,2.402 -7.129,3.603c-25.315,-39.177 -11.292,-144.345 27.911,-65.586c12.216,24.542 8.382,61.608 3.422,69.084c-0.621,0.936 -1.906,-3.164 -2.526,-2.228l-4.36,-0.471c-6.143,-33.837 -7.473,-33.204 -17.333,-66.211c-4.81,-6.264 -8.638,-12.792 -8.653,-4.698c-0.003,1.818 2.097,3.217 2.094,5.035Z" style="fill:#fafae8;"/><path d="M1506.606,863.597c-22.118,-28.241 23.675,-120.119 35.366,-93.697c0.73,1.65 23.359,40.352 -6.13,95.153c-16.262,30.22 7.563,-99.942 -6.856,-78.191c-7.765,11.713 -11.896,61.889 -22.379,76.736Z" style="fill:#faf8e8;"/><path d="M1615.831,960.962c-0.939,1.633 -45.159,78.589 -19.998,12.434c21.745,-57.175 16.716,-61.239 11.759,-60.947c-3.253,0.192 -33.158,69.142 -34.525,69.333c-26.059,3.639 28.069,-109.47 46.741,-89.25c3.535,3.828 5.312,25.787 5.299,26.135c-0.85,22.77 -7.904,39.114 -9.276,42.295Z" style="fill:#faf8eb;"/><path d="M997.043,1223.157c1.882,2.011 3.764,4.023 5.646,6.034c-0.692,0.156 -0.251,4.394 -17.348,3.044c-174.921,13.229 -193.175,13.278 -181.529,4.594c9.359,-6.979 169.271,-12.063 180.516,-15.721c1.94,-0.631 3.668,-3.396 5.544,-2.595c1.441,0.616 -1.966,3.646 -0.755,4.641c0.49,0.402 0.587,0 7.925,0.002Z" style="fill:#262626;"/><path d="M1034.443,1169.783l4.021,0.331c1.045,8.725 -2.676,7.122 -11.214,7.51c-33.583,1.528 -48.139,4.101 -69.381,-18.194c-12.31,-12.921 9.922,-8.721 11.017,-8.514c24.383,4.606 56.175,4.617 58.381,4.911c9.46,1.261 7.199,4.626 7.176,13.956Z" style="fill:#f6eccb;"/><path d="M1051.73,1199.178c5.816,1.326 5.899,1.087 6.281,1.432c2.62,2.368 0.039,3.536 2.83,6.058c-10.54,2.1 -10.426,1.389 -11.315,1.601c-61.136,14.605 -59.102,-7.283 -56.008,-10.634c1.128,-1.222 36.899,-3.238 37.591,-2.999c10.058,3.469 9.731,4.198 20.621,4.541Z" style="fill:#f3eedb;"/><path d="M1089.499,1223.128l3.001,0.859c-1.82,5.381 -0.804,6.044 -5.686,8.683c-2.977,1.305 -28.142,12.334 -38.875,11.804c-14.26,-0.704 -22.701,0.324 -16.489,-12.775c14.656,-3.705 14.648,-5.883 29.231,-1.822c2.281,0.635 2.54,0.707 28.818,-6.749Z" style="fill:#f5e9c7;"/><path d="M1065.673,1266.751c-2.693,-17.512 22.631,-9.096 44.808,-16.683c1.53,-0.523 48.216,-16.495 20.174,1.156c-33.274,20.944 -59.713,16.428 -64.981,15.528Z" style="fill:#fae9b8;"/><path d="M1147.217,916.478l8.314,-1.759c8.045,13.15 2.003,38.122 1.225,41.337c-8.648,-18.686 -2.921,-19.976 -9.539,-39.578Z" style="fill:#f8faec;"/><path d="M1060.856,1153.819c2.994,2.59 5.987,5.181 8.981,7.771c-15.489,9.91 -14.269,10.901 -17.54,15.532c-5.032,-3.108 -4.226,-3.66 -9.179,-6.934c9.568,-8.093 6.281,-11.739 17.738,-16.369Z" style="fill:#262626;"/><path d="M1097.805,1220.608c8.871,2.194 8.998,1.836 9.58,2.369c1.341,1.229 8.34,16.375 -20.571,9.693c4.881,-2.639 3.865,-3.303 5.686,-8.683l5.305,-3.379Z" style="fill:#262626;"/><path d="M847.731,1295.219c8.931,-8.352 7.919,-14.701 17.171,-9.802c21.558,11.415 -15.591,9.868 -17.171,9.802Z" style="fill:#f9fcfd;"/><path d="M1097.805,1220.608l-5.305,3.379l-3.001,-0.859c-8.281,-14.309 -0.531,-13.703 0.556,-13.618c1.08,0.084 2.785,0.218 7.75,11.099Z" style="fill:#262626;"/><path d="M1042.919,1264.461c1.158,0.545 2.407,-1.971 3.565,-1.426c0.832,0.391 15.195,11.942 -6.181,9.684l-2.183,-2.564l4.798,-5.694Z" style="fill:#262626;"/><path d="M1081.427,732.317l-5.139,3.167c-0.671,-2.716 -8.189,-27.105 7.828,-8.401l-2.69,5.234Z" style="fill:#262626;"/><path d="M776.827,1164.036c1.613,2.625 3.226,5.249 4.84,7.874c-0.738,-0.043 -40.79,-7.419 -4.84,-7.874Z" style="fill:#eef0e0;"/><path d="M1002.011,1118.558l-4.849,5.115c-9.326,-4.271 -14.615,-4.012 -9.998,-7.577c2.221,-1.715 2.475,-0.56 14.846,2.462Z" style="fill:#262626;"/><path d="M1163.838,997.957c2.083,5.807 3.481,21.187 -3.272,12.175c-0.456,-0.609 -0.271,-0.65 -3.662,-8.779c6.905,-3.325 6.619,-3.149 6.934,-3.395Z" style="fill:#262626;"/><path d="M1141.275,1286.553c0.982,-0.647 13.962,-9.191 14.679,-0.741c0.127,1.501 -0.529,1.238 -11.054,8.519c-0.241,-1.813 2.965,-2.95 2.724,-4.764c-0.353,-2.662 -3.511,-4.161 -3.935,-4.363c-1.496,-0.71 -0.749,2.139 -2.414,1.348Z" style="fill:#262626;"/><path d="M1067.282,1351.927l6.089,2.158c-7.669,7.963 -7.478,8.086 -8.283,8.6c-13.96,8.917 1.637,-10.08 2.194,-10.758Z" style="fill:#f3eace;"/><path d="M1085.697,935.335c1.221,3.101 9.211,14.446 -4.312,7.652l3.686,-3.552l0.626,-4.1Z" style="fill:#f9f4dd;"/><path d="M1051.73,1199.178c7.393,0.148 7.346,0.173 7.985,0.16c1.812,-0.035 1.471,-0.399 3.222,-0.433c0.074,0.563 0.93,7.031 0.93,7.031c-1.118,1.392 -1.786,-0.812 -3.025,0.731c-2.791,-2.522 -0.209,-3.69 -2.83,-6.058c-0.382,-0.346 -0.465,-0.106 -6.281,-1.432Z" style="fill:#262626;"/><path d="M1394.762,682.118c0.003,-1.818 -2.097,-3.217 -2.094,-5.035c0.015,-8.095 3.844,-1.566 8.653,4.698c-2.186,0.112 -4.373,0.225 -6.559,0.337Z" style="fill:#ede3c2;"/><path d="M1222.939,690.743c-1.477,2.49 -2.953,4.981 -4.43,7.471c-1.465,-2.511 -2.534,-1.616 -2.643,-4.528c-0.179,-4.771 2.012,-2.651 7.073,-2.943Z" style="fill:#eee1c0;"/><path d="M797.861,1079.849l4.226,1.214c-4.223,3.46 -3.394,9.694 -6.179,5.062c-1.129,-1.878 3.082,-4.399 1.953,-6.276Z" style="fill:#262626;"/><path d="M872.723,1539.704c-0.847,1.159 3.691,2.076 2.844,3.235c-0.568,0.778 -0.825,0.306 -11.287,4.194c0.726,-0.429 0.659,-0.459 8.443,-7.428Z" style="fill:#e8dbc0;"/><path d="M1022.458,1169.297c-1.323,-0.173 -2.669,-0.122 -3.993,-0.295c-3.599,-0.47 -4.817,-0.641 -3.267,-4.203c2.312,-5.316 2.274,1.409 7.26,4.498Z" style="fill:#e4bf81;"/><path d="M1093.703,752.598c2.403,-0.197 4.806,-0.395 7.209,-0.592c-1.921,3.481 0.773,7.097 -2.995,5.428c-1.955,-0.866 -2.259,-3.97 -4.214,-4.836Z" style="fill:#f4edd4;"/><path d="M1534.944,985.679c0.019,1.67 2.942,2.373 2.961,4.043c0.007,0.599 -0.473,0.248 -6.63,3.479c1.072,-0.908 -0.211,-1.348 0.857,-2.253c2.359,-1.998 1.221,-2.287 2.812,-5.269Z" style="fill:#333;"/><path d="M1031.506,1072.195c0.44,5.013 5.806,7.162 0.666,7.574c-4.976,0.398 -0.226,-2.575 -0.666,-7.574Z" style="fill:#262626;"/><path d="M1060.856,1153.819c1.354,0.312 2.814,-0.369 4.168,-0.056c2.997,0.691 3.551,1.593 3.726,1.877c1.658,2.697 -0.685,3.069 1.087,5.951c-2.994,-2.59 -5.987,-5.181 -8.981,-7.771Z" style="fill:#262626;"/><path d="M1401.336,743.59c-0.672,1.072 0.303,2.705 -0.369,3.776c-0.287,0.458 -0.501,-0.013 -6.76,-0.173c2.376,-1.201 4.753,-2.402 7.129,-3.603Z" style="fill:#f8d371;"/><path d="M1480.813,877.4c-0.089,1.413 1.881,2.438 1.792,3.85c0,0 -5.346,2.759 -5.81,2.999c1.339,-2.283 2.679,-4.566 4.018,-6.849Z" style="fill:#262626;"/><path d="M1022.928,1114.569c0.599,0.356 7.488,4.456 7.488,4.456c1.337,6.794 -1.784,-1.062 -7.488,-4.456Z" style="fill:#262626;"/><path d="M1012.586,1062.173l1.042,2.683c-2.585,0.852 -5.17,1.705 -7.755,2.557c4.028,-2.203 3.569,-2.124 6.713,-5.24Z" style="fill:#fbd371;"/><path d="M1076.94,939.839c2.71,-0.135 5.42,-0.27 8.131,-0.404l-3.686,3.552l-4.445,-3.148Z" style="fill:#f4edd3;"/></g></svg>