<?xml version="1.0" encoding="UTF-8" standalone="no"?><!DOCTYPE svg PUBLIC "-//W3C//DTD SVG 1.1//EN" "http://www.w3.org/Graphics/SVG/1.1/DTD/svg11.dtd"><svg width="100%" height="100%" viewBox="0 0 7467 10000" version="1.1" xmlns="http://www.w3.org/2000/svg" xmlns:xlink="http://www.w3.org/1999/xlink" xml:space="preserve" xmlns:serif="http://www.serif.com/" style="fill-rule:evenodd;clip-rule:evenodd;stroke-linejoin:round;stroke-miterlimit:2;"><g id="Background"><path d="M1850.311,5719.606c-34.439,2.262 -287.173,18.862 -408.092,-139.922c-15.748,-20.68 -9.449,-42.475 17.843,-39.655c326.064,33.696 321.892,-21.442 510.142,-150.811c644.477,-442.898 1707.72,-171.803 2146.733,72.773c117.981,65.728 -206.409,-164.617 -318.731,-624.18c-83.348,-341.017 32.644,-653.353 29.595,-664.31c-1.802,-6.474 -300.564,-192.069 -137.117,-396.017c116.617,-145.514 299.531,-269.414 317.411,-264.139c54.401,16.052 106.497,123.873 459.855,139.153c51.123,2.211 51.619,14.053 78.761,111.879c168.164,606.117 -299.837,523.556 -401.346,509.092c-124.377,-17.722 -215.998,-76.749 -225.802,-40.591c-210.277,775.515 544.654,1363.673 661.547,1498.16c278.251,320.131 861.69,783.15 664.564,2017.434c-24.273,151.986 -177.322,720.479 -269.863,726.969c-51.141,3.587 -111.101,-74.722 -94.9,-129.975c204.863,-698.669 369.699,-1340.868 -55.697,-2000.201c-131.247,-203.423 -485.847,-805.217 -1646.44,-790.171c-679.285,8.807 -1077.487,390.255 -1358.652,670.035c-81.038,80.639 34.247,-12.645 242.498,-131.369c190.097,-108.374 580.28,-311.986 715.602,-319.336c111.297,-6.045 216.803,41.238 164.24,56.347c-177.629,51.057 -294.267,77.961 -570.617,397.826c-126.894,146.876 -426.649,633.203 -1068.164,699.796c-195.362,20.28 -422.202,-71.252 -320.24,-122.773c165.179,-83.464 118.612,-133.846 303.519,-520.04c180.125,-376.208 513.805,-524.245 571.823,-549.985c-0.431,-2.626 -0.863,-5.253 -1.294,-7.879c-2.392,-2.703 -4.785,-5.406 -7.177,-8.109Z" style="fill:#6a442d;"/><path d="M3745.994,6607.4c0.968,2.742 1.935,5.484 2.903,8.226c1.571,2.113 -6.187,9.337 6.35,8.543c75.216,-4.76 353.361,-38.941 624.327,100.068c181.726,93.228 242.191,238.03 185.86,233.145c-213.526,-18.521 -423.928,-44.962 -636.067,145.715c-218.264,196.183 -434.804,146.156 -358.94,80.76c63.085,-54.38 70.174,-55.11 74.084,-138.141c5.825,-123.708 63.215,-211.371 22.478,-175.603c-22.678,19.912 -137.618,291.598 -653.607,144.331c-73.692,-21.032 -331.783,-147.038 -224.635,-170.435c291.98,-63.756 250.921,-394.876 869.803,-527.938c119.837,-25.765 -180.953,17.726 -275.33,-275.852c-3.302,-10.271 -62.118,-193.229 17.756,-133.689c270.169,201.39 728.598,-119.222 1140.801,555.929c22.193,36.35 116.807,211.404 42.333,175.235c-24.795,-12.042 -165.13,-106.999 -487.229,-94.942c-28.524,1.068 -179.135,6.705 -350.889,64.648Z" style="fill:#69442d;"/><path d="M4135.361,1932.811c193.128,27.554 322.939,139.762 475.797,582.887c6.662,19.312 6.263,57.435 35.428,21.271c210.18,-260.623 277.808,-282.537 310.29,-293.062c232.311,-75.277 602.394,180.271 588.135,573.642c-14.158,390.582 -483.992,436.695 -488.825,399.756c-11.047,-84.429 35.537,-189.124 -180.938,-387.233c-118.507,-108.453 -445.485,-272.029 -806.411,-116.501c-14.313,6.168 -73.594,45.495 -96.212,22.603c-83.874,-84.89 -447.505,-393.298 -186.633,-678.839c131.643,-144.092 337.034,-124.669 349.369,-124.524Z" style="fill:#68432c;"/><path d="M3807.993,3168.534c28.492,161.65 45.686,155.937 111.432,255.148c19.06,28.762 -240.907,321.81 -427.78,353.484c-421.52,71.445 -532.795,-709.892 -369.292,-1017.218c117.813,-221.446 412.581,-384.102 747.495,97.829c12.078,17.38 -16.209,39.897 -36.707,96.371c-36.547,100.69 -26.382,171.454 -25.148,214.386Z" style="fill:#69432c;"/><path d="M4766.223,3862.802c-18.342,-118.037 -20.401,-117.088 -47.394,-224.539c-7.353,-29.27 55.028,-40.52 79.098,-52.946c162.755,-84.023 225.823,-250.591 230.065,-257.963c15.469,-26.883 279.571,33.296 403.374,109.949c28.989,17.949 204.196,126.43 92.995,415.933c-77.829,202.624 -243.136,284.418 -248.738,287.994c-195.973,125.08 -522.439,101.185 -538.259,86.512c-37.112,-34.423 60.553,-42.392 28.859,-364.939Z" style="fill:#69432c;"/><path d="M5395.437,5342.26c-33.372,0.838 -249.711,-17.322 -514.27,203.56c-94.105,78.569 -106.109,182.441 -154.274,106.401c-335.191,-529.185 13.582,-790.825 219.4,-791.842c24.004,-0.119 231.364,-1.142 229.586,193.19c-0.272,29.77 -30.552,94.765 15.301,50.125c183.653,-178.793 620.043,-89.932 590.166,281.546c-6.695,83.241 -46.067,-13.799 -180.401,-31.358c-102.577,-13.408 -102.211,-11.93 -205.51,-11.623Z" style="fill:#69442d;"/><path d="M4823.469,3187.707c57.028,450.609 -866.727,250.151 -814.773,-145.729c37.326,-284.417 719.606,-219.168 814.773,145.729Z" style="fill:#69432c;"/><path d="M3560.166,5166.284c-19.794,-4.92 -131.026,-32.57 -242.654,-78.239c-339.436,-138.867 -281.044,-444.982 -247.01,-456.381c77.001,-25.79 141.638,62.4 125.599,-16.982c-46.985,-232.546 114.913,-420.417 226.24,-443.33c62.551,-12.874 -20.572,41.227 -0.781,433.202c21.721,430.209 241.149,564.619 138.606,561.729Z" style="fill:#69442c;"/></g></svg>